<svg width="211" height="35" fill="none" xmlns="http://www.w3.org/2000/svg"><path d="M.768 25.6h8.4V34h-8.4v-8.4zM23.232 34c-4 0-7.088-1.104-9.264-3.312-2.144-2.24-3.216-5.344-3.216-9.312 0-3.968 1.088-7.056 3.264-9.264C16.192 9.904 19.28 8.8 23.28 8.8c.96 0 2.048.08 3.264.24 1.248.16 2.448.432 3.6.816v7.872c-1.088-.384-2.048-.64-2.88-.768-.8-.16-1.616-.24-2.448-.24-2.08 0-3.552.368-4.416 1.104-.832.736-1.248 1.92-1.248 3.552 0 1.632.416 2.832 1.248 3.6.864.736 2.304 1.104 4.32 1.104h5.424V34h-6.912zm8.953-24.96h7.2v8.64h8.785V9.04h7.2V34h-7.2v-8.64h-8.785V34h-7.2V9.04zm25.688 0h8.4V30.4h.24l2.928-21.36h15.888V34h-8.4V12.64h-.24L73.761 34H57.873V9.04zm29.953 0h23.184V34h-8.4V16.96h-6.384V34h-8.4V9.04zm32.936 12.528L113.034 9.04h9.84l1.392 2.256a7.77 7.77 0 0 1 1.008 2.448c.192.864.288 1.76.288 2.688h.24c0-.928.112-1.824.336-2.688a8.727 8.727 0 0 1 1.056-2.448l1.392-2.256h9.792l-7.776 12.528L138.282 34h-9.84l-1.296-2.112a8.727 8.727 0 0 1-1.056-2.448 12.356 12.356 0 0 1-.288-2.688h-.24c0 .928-.112 1.824-.336 2.688a7.77 7.77 0 0 1-1.008 2.448L122.922 34h-9.888l7.728-12.432zm25.167 12.768c-2.336 0-4.176-.656-5.52-1.968-1.344-1.344-2.016-3.088-2.016-5.232 0-1.312.256-2.528.768-3.648a9.174 9.174 0 0 1 2.304-3.024c1.024-.896 2.256-1.648 3.696-2.256 1.472-.608 3.12-1.024 4.944-1.248v-.24h-10.128V9.04h14.736c2.432 0 4.272.64 5.52 1.92 1.28 1.248 1.92 3.088 1.92 5.52V34h-8.4v-4.848h-.24c-.48 1.632-1.392 2.912-2.736 3.84-1.312.896-2.928 1.344-4.848 1.344zm4.176-5.904c2.432 0 3.648-1.12 3.648-3.36V18.64c0-1.28-.64-1.92-1.92-1.92h-.528a18.704 18.704 0 0 0-1.872 1.728 13.664 13.664 0 0 0-1.632 1.968 9.349 9.349 0 0 0-1.152 2.16 6.649 6.649 0 0 0-.432 2.352c0 1.152.336 2.032 1.008 2.64.672.576 1.632.864 2.88.864zm26.452 5.904c-4.352 0-7.504-1.248-9.456-3.744-1.92-2.496-2.88-6.16-2.88-10.992 0-2.72.256-4.96.768-6.72.512-1.76 1.152-3.216 1.92-4.368.8-1.152 1.664-2.064 2.592-2.736A43.237 43.237 0 0 1 172.237 4a34.806 34.806 0 0 0 2.4-1.584A4.087 4.087 0 0 0 176.125.4h9.312c-.192 1.792-.656 3.232-1.392 4.32-.736 1.088-1.6 2-2.592 2.736-.96.704-2 1.328-3.12 1.872a21.254 21.254 0 0 0-3.024 1.728 8.77 8.77 0 0 0-2.256 2.352c-.608.928-.912 2.16-.912 3.696h.24c.416-1.92 1.312-3.392 2.688-4.416 1.408-1.056 3.168-1.584 5.28-1.584 2.72 0 4.8.896 6.24 2.688 1.472 1.792 2.208 4.384 2.208 7.776 0 4.16-1.04 7.328-3.12 9.504-2.08 2.176-5.12 3.264-9.12 3.264zm-.048-7.68c.736 0 1.344-.08 1.824-.24.512-.16.912-.448 1.2-.864.32-.416.544-.96.672-1.632.128-.672.192-1.504.192-2.496s-.064-1.824-.192-2.496c-.128-.672-.352-1.2-.672-1.584a2.215 2.215 0 0 0-1.2-.864c-.48-.192-1.088-.288-1.824-.288-1.504 0-2.528.368-3.072 1.104-.512.704-.768 2.048-.768 4.032 0 2.048.272 3.456.816 4.224.544.736 1.552 1.104 3.024 1.104zM201.849.4h8.88L199.257 34h-8.88L201.849.4z" fill="#fff"/></svg>